<svg xmlns="http://www.w3.org/2000/svg" xmlns:xlink="http://www.w3.org/1999/xlink" width="154" height="57" viewBox="0 0 154 57">
  <defs>
    <clipPath id="clip-Builty_Logo">
      <rect width="154" height="57"/>
    </clipPath>
  </defs>
  <g id="Builty_Logo" data-name="Builty Logo" clip-path="url(#clip-Builty_Logo)">
    <path id="Path_9" data-name="Path 9" d="M26.5,53A26.528,26.528,0,0,1,2.083,36.815c-.064-.151-.121-.289-.175-.424l22.607-22.3,12.53,12.7,3.9-4.474L24.515,6.093l-13,13.471.109-4.856-3.887-2.03L4.725,16.043l2.842-.986-.016,2.7-.035,5.962L.4,31.1A26.5,26.5,0,1,1,51.9,34.071l-9.387-9.388-20.2,20.407h8.2L42.515,32.678l6.7,7.484A26.482,26.482,0,0,1,26.5,53ZM43,42v2h2V42Zm-3,0v2h2V42Zm3-3v2h2V39Zm-3,0v2h2V39ZM24.551,15.725,4.063,36.437l.172.235L24.368,18.551l9.808,7.917.279-.329-9.9-10.414ZM25,28v3h3V28Zm-4,0v3h3V28Zm4-5v3h3V23Zm-4,0v3h3V23Z" transform="translate(15 2)" fill="#ffee02"/>
    <path id="Path_4" data-name="Path 4" d="M900.563,546.922l-.586-4.5-14.4,18.8Z" transform="translate(-885 -514)" fill="#ffee02"/>
    <path id="Path_10" data-name="Path 10" d="M15.736,23a6.684,6.684,0,0,1-.266,9.086,6.111,6.111,0,0,1-4.522,1.89H3.584q-1.96,0-2.3-1.064a4.682,4.682,0,0,1-.168-1.456V15.912a8.083,8.083,0,0,1,.042-.98,2.257,2.257,0,0,1,.266-.728q.392-.756,2.184-.756h7.056A5.761,5.761,0,0,1,14.98,15.24a5.957,5.957,0,0,1,1.82,4.368A5.832,5.832,0,0,1,15.736,23Zm-3.3,4.116a2.984,2.984,0,0,0-.154-1.064.988.988,0,0,0-.518-.56,4.362,4.362,0,0,0-1.568-.224,2.439,2.439,0,0,1-1.512-.392,1.983,1.983,0,0,1-.5-1.61,1.951,1.951,0,0,1,.518-1.61,2.909,2.909,0,0,1,1.722-.392q1.12,0,1.344-.588a4.257,4.257,0,0,0,.084-1.008,1.052,1.052,0,0,0-.462-.98A2.725,2.725,0,0,0,10,18.4H6.076V29.016h4.592Q12.432,29.016,12.432,27.112Zm12.8,6.832a5.951,5.951,0,0,1-4.69-2.142,7.683,7.683,0,0,1-1.862-5.222v-4.9a8.083,8.083,0,0,1,.042-.98,2.616,2.616,0,0,1,.238-.728q.392-.756,2.184-.756,1.96,0,2.3,1.064a4.4,4.4,0,0,1,.168,1.428v4.9a2.249,2.249,0,0,0,2.422,2.436,2.451,2.451,0,0,0,1.792-.672,2.359,2.359,0,0,0,.686-1.764V21.652a8.134,8.134,0,0,1,.042-.966,2.243,2.243,0,0,1,.266-.742q.364-.728,2.156-.728,1.764,0,2.156.756a2.6,2.6,0,0,1,.238.742,8.136,8.136,0,0,1,.042.966v9.912a7.813,7.813,0,0,1-.042.938,1.991,1.991,0,0,1-.266.714q-.42.728-2.156.728-1.708,0-2.1-.672a2.226,2.226,0,0,1-.28-1.148,2.85,2.85,0,0,1-.5.56,6.871,6.871,0,0,1-.756.616A3.74,3.74,0,0,1,25.228,33.944Zm9.884-12.236a8.134,8.134,0,0,1,.042-.966A2.6,2.6,0,0,1,35.392,20q.392-.728,2.184-.728a2.96,2.96,0,0,1,1.9.476,1.543,1.543,0,0,1,.5,1.2q.028.28.028.812v9.8a8.134,8.134,0,0,1-.042.966,2.243,2.243,0,0,1-.266.742Q39.34,34,37.548,34q-1.764,0-2.156-.756a2.616,2.616,0,0,1-.238-.728,8.083,8.083,0,0,1-.042-.98Zm4.606-5.194a1.187,1.187,0,0,1-.742.574,6.035,6.035,0,0,1-2.828,0,1.174,1.174,0,0,1-.742-.588,2.4,2.4,0,0,1-.252-.742,8.134,8.134,0,0,1-.042-.966,8.134,8.134,0,0,1,.042-.966,2.287,2.287,0,0,1,.238-.714q.392-.756,2.184-.756,1.764,0,2.128.756a2.243,2.243,0,0,1,.266.742,8.134,8.134,0,0,1,.042.966,8.134,8.134,0,0,1-.042.966A2.26,2.26,0,0,1,39.718,16.514Zm2-1.75a8.134,8.134,0,0,1,.042-.966A2.6,2.6,0,0,1,42,13.056q.392-.756,2.184-.756,1.708,0,2.128.756a2.234,2.234,0,0,1,.266.756,8.518,8.518,0,0,1,.042.98V27.756a2.929,2.929,0,0,0,.168,1.274q.168.266.742.266a4.483,4.483,0,0,1,.77.042,1.4,1.4,0,0,1,.476.238q.56.364.56,1.988,0,1.764-.56,2.156-.728.5-3.472.168a3.5,3.5,0,0,1-2.8-1.428,9.19,9.19,0,0,1-.784-4.368ZM57.792,24.2l-1.82-.112v3.864a1.932,1.932,0,0,0,.238,1.092,1.03,1.03,0,0,0,.9.336,9.082,9.082,0,0,1,1.008.042,1.989,1.989,0,0,1,.742.266q.644.364.644,1.876,0,1.764-.784,2.156a2.6,2.6,0,0,1-.742.238,7.813,7.813,0,0,1-.938.042,6.556,6.556,0,0,1-4.424-1.316Q51.1,31.368,51.1,28.232V24.088a7.371,7.371,0,0,1-1.148.084A1.287,1.287,0,0,1,48.93,23.7a2.521,2.521,0,0,1-.406-1.624,7.048,7.048,0,0,1,.14-1.666,1.5,1.5,0,0,1,.392-.742,1.718,1.718,0,0,1,1.12-.364l.924.112V16.528a7.76,7.76,0,0,1,.042-.952,1.764,1.764,0,0,1,.266-.672q.364-.7,2.156-.7,1.9,0,2.268,1.036a5.234,5.234,0,0,1,.14,1.428v2.744Q57.2,19.3,57.834,19.3a7.973,7.973,0,0,1,.952.042,2.243,2.243,0,0,1,.742.266q.728.364.728,2.156,0,1.764-.756,2.156a2.6,2.6,0,0,1-.742.238A8.134,8.134,0,0,1,57.792,24.2Zm16.772-4.788q1.652.728,1.652,1.764a2.1,2.1,0,0,1-.224.952,4.624,4.624,0,0,0-.224.476L68.432,39.012q-.224.532-.378.812a1.722,1.722,0,0,1-.49.532,1.361,1.361,0,0,1-.84.252,4.22,4.22,0,0,1-1.484-.42q-1.652-.728-1.652-1.736,0-.672,2.688-6.412L60.7,22.66a3.132,3.132,0,0,1-.56-1.372q0-.9,1.512-1.792a3.283,3.283,0,0,1,1.484-.56,1.536,1.536,0,0,1,.868.224,1.683,1.683,0,0,1,.49.462q.154.238,1.54,2.6t2.646,4.41q.14-.448,1.512-3.458t1.47-3.206a2.846,2.846,0,0,1,.322-.476,1.212,1.212,0,0,1,1.022-.476A3.99,3.99,0,0,1,74.564,19.412Z" transform="translate(76 1)" fill="#000" opacity="1"/>
    <path id="Path_7" data-name="Path 7" d="M22.516,25.5l0,5.47-.705-5.3Z" fill="#ffee02"/>
    <path id="Path_8" data-name="Path 8" d="M898.221,545.8l-.536-3.8-12.1,15.507Z" transform="matrix(1, 0.017, -0.017, 1, -866.028, -530.46)" fill="#ffee02"/>
  </g>
</svg>
