<svg xmlns="http://www.w3.org/2000/svg" xmlns:xlink="http://www.w3.org/1999/xlink" width="154" height="57" viewBox="0 0 154 57">
  <defs>
    <clipPath id="clip-Builty_Logo">
      <rect width="154" height="57"/>
    </clipPath>
  </defs>
  <g id="Builty_Logo" data-name="Builty Logo" clip-path="url(#clip-Builty_Logo)">
    <path id="Subtraction_6" data-name="Subtraction 6" d="M26.5,53A26.528,26.528,0,0,1,2.083,36.815c-.064-.151-.121-.289-.175-.424l22.607-22.3,12.53,12.7,3.9-4.474L24.515,6.093l-13,13.471.109-4.856-3.887-2.03L4.725,16.043l2.842-.986-.016,2.7-.035,5.962L.4,31.1A26.5,26.5,0,1,1,51.9,34.071l-9.387-9.388-20.2,20.407h8.2L42.515,32.678l6.7,7.484A26.482,26.482,0,0,1,26.5,53ZM43,42v2h2V42Zm-3,0v2h2V42Zm3-3v2h2V39Zm-3,0v2h2V39ZM24.551,15.725,4.063,36.437l.172.235L24.368,18.551l9.808,7.917.279-.329-9.9-10.414ZM25,28v3h3V28Zm-4,0v3h3V28Zm4-5v3h3V23Zm-4,0v3h3V23Z" transform="translate(15 2)" fill="#ffee02"/>
    <path id="Path_4" data-name="Path 4" d="M900.563,546.922l-.586-4.5-14.4,18.8Z" transform="translate(-885 -514)" fill="#ffee02"/>
    <path id="Path_9" data-name="Path 9" d="M14.031,28.663A5.157,5.157,0,0,0,16.24,24.44c0-2.884-2.512-5.04-5.893-5.04h-8.1V39h8.331a5.918,5.918,0,0,0,6.17-5.656,5.077,5.077,0,0,0-2.713-4.681Zm-1.9-3.561a2.022,2.022,0,0,1-2.184,2.09H6.41v-4.18H9.943a2.022,2.022,0,0,1,2.184,2.09ZM10.175,35.108H6.41v-4.4h3.765a2.2,2.2,0,1,1,0,4.4Zm16.112,4.32c4.276,0,7.092-2.729,7.092-6.812V23.88H29.291v8.27c0,2.123-1.11,3.434-3,3.434S23.26,34.3,23.26,32.15V23.88H19.172v8.736C19.172,36.7,22.016,39.428,26.287,39.428ZM36.578,21.864h4.073v-3.8H36.578ZM36.571,39h4.088V23.88H36.571Zm7.476,0h4.088V18.43H44.047Zm14.868-3.64a2.1,2.1,0,0,1-2.329-2.3V27.166h4.1V23.88H56.517V19.935h-.781l-5.972,6.348v.883H52.5V33.6c0,3.355,2.044,5.4,5.371,5.4h2.9V35.36ZM73.48,23.88l-3.766,9.3-4.033-9.3H61.231l6.406,13.961-.057.123c-.929,2.286-1.441,2.81-3.411,2.81H62.753V44.45h1.685c3.393,0,4.987-1.553,6.8-5.651l6.59-14.919Z" transform="translate(74 1)" fill="#fff"/>
    <path id="Path_7" data-name="Path 7" d="M22.516,25.5l0,5.47-.705-5.3Z" fill="#ffee02"/>
    <path id="Path_8" data-name="Path 8" d="M898.221,545.8l-.536-3.8-12.1,15.507Z" transform="matrix(1, 0.017, -0.017, 1, -866.028, -530.46)" fill="#ffee02"/>
  </g>
</svg>
